<svg id="bot_logo" data-name="bot logo" xmlns="http://www.w3.org/2000/svg" width="42.5" height="42.426" viewBox="0 0 42.5 42.426">
  <path id="Path_26" data-name="Path 26" d="M352.406,832.988c-.365-.011-.732,0-1.072,0-.286-1.778-.24-1.916.913-2.928a3.194,3.194,0,1,0-4.106.066c1.012.818,1.177,1.412.773,2.794H336.349a9,9,0,0,1,.023-1.561,1.584,1.584,0,0,1,.528-.949,3.225,3.225,0,0,0,1.423-3.616,3.154,3.154,0,0,0-3.1-2.335,3.192,3.192,0,0,0-1.6,5.931c.215.142.5.369.521.581a19.3,19.3,0,0,1,.025,2.009c-.463,0-.776-.007-1.087,0a5.317,5.317,0,0,0-5.27,5.365q-.027,8.969.006,17.938a5.288,5.288,0,0,0,5.327,5.4c1.011.019,2.022,0,3.195,0,0,1.3-.055,2.5.026,3.687a2.068,2.068,0,0,0,.584,1.438c.291.2,1.022-.02,1.432-.265q3.257-1.946,6.44-4.016a4.744,4.744,0,0,1,3-.865c1.482.087,2.973.037,4.46.017a5.258,5.258,0,0,0,5.3-5.132q.093-9.205.008-18.412A5.273,5.273,0,0,0,352.406,832.988Zm-7.549,9.273a3.181,3.181,0,0,1,6.343.148,1.03,1.03,0,0,1-.871,1.167.988.988,0,0,1-1.216-.9c-.113-.665-.365-1.168-1.113-1.163-.7.005-.947.477-1.043,1.114a1,1,0,0,1-1.181.955C345.055,843.477,344.818,842.947,344.858,842.261Zm-10.629-.045a3.186,3.186,0,0,1,6.338.052c.04.69-.191,1.219-.916,1.314a.992.992,0,0,1-1.175-.959c-.094-.636-.369-1.1-1.059-1.112s-.984.431-1.083,1.074a1.016,1.016,0,0,1-1.243.987C334.365,843.448,334.173,842.894,334.228,842.216ZM350.2,852.725c-.144.066-.289.13-.436.187a19.248,19.248,0,0,1-14.515-.172c-.715-.3-1.246-.7-.938-1.569.233-.657.86-.755,1.773-.383a16.823,16.823,0,0,0,13.291-.03c.7-.291,1.3-.375,1.716.37C351.429,851.735,351.075,852.326,350.2,852.725Z" transform="translate(-321.407 -824.456)" fill="#fff"/>
  <path id="Path_27" data-name="Path 27" d="M226.629,1097.137a30.711,30.711,0,0,0,.016,4.918,3.111,3.111,0,0,0,4.171,2.649v-10.354C228.556,1093.938,226.783,1095.083,226.629,1097.137Z" transform="translate(-226.539 -1077.215)" fill="#fff"/>
  <path id="Path_28" data-name="Path 28" d="M837.628,1097.269a3.1,3.1,0,0,0-4.138-3.042v10.342c2.44.478,4.136-.869,4.138-3.231C837.63,1099.982,837.632,1098.626,837.628,1097.269Z" transform="translate(-795.13 -1077.038)" fill="#fff"/>
</svg>
