<svg xmlns="http://www.w3.org/2000/svg" xmlns:xlink="http://www.w3.org/1999/xlink" width="80" height="80" viewBox="0 0 80 80">
  <defs>
    <clipPath id="clip-account">
      <rect width="80" height="80"/>
    </clipPath>
  </defs>
  <g id="account" clip-path="url(#clip-account)">
    <path id="account-2" data-name="account" d="M39.9,0A39.9,39.9,0,1,1,0,39.9,39.9,39.9,0,0,1,39.9,0ZM66.923,64.539c-.937-1.334-2.567-2.175-5.4-2.829C48.729,58.7,47.9,56.722,47.053,54.867c-.861-1.879-.632-4.09.683-6.573,5.739-10.829,6.95-20.03,3.414-25.9-2.244-3.721-6.235-5.766-11.249-5.766-5.057,0-9.084,2.082-11.335,5.862-3.544,5.951-2.3,15.109,3.488,25.793,1.337,2.467,1.582,4.675.732,6.563-.878,1.951-2.032,3.957-14.514,6.87-2.829.652-4.462,1.493-5.4,2.819a36.552,36.552,0,0,0,54.049,0Zm2.161-2.6a36.576,36.576,0,1,0-58.371-.007c1.36-1.5,3.488-2.693,6.813-3.461,6.731-1.536,11.226-2.779,12.229-4.994.406-.9.2-2.088-.625-3.61C22.756,38.114,21.542,27.787,25.7,20.791c2.836-4.758,8.006-7.484,14.194-7.484,6.134,0,11.275,2.687,14.1,7.375,4.161,6.906,2.98,17.267-3.324,29.169-.815,1.539-1.011,2.732-.6,3.638,1.015,2.221,5.463,3.451,12.194,4.984,3.325.765,5.453,1.962,6.813,3.468Z" fill="#fff" fill-rule="evenodd"/>
  </g>
</svg>
