<svg xmlns="http://www.w3.org/2000/svg" xmlns:xlink="http://www.w3.org/1999/xlink" width="80" height="80" viewBox="0 0 80 80">
  <defs>
    <clipPath id="clip-calendar">
      <rect width="80" height="80"/>
    </clipPath>
  </defs>
  <g id="calendar" clip-path="url(#clip-calendar)">
    <g id="calendar-2" data-name="calendar" transform="translate(-20.602 0.442)">
      <path id="Path_6" data-name="Path 6" d="M233.29,371.989a1.165,1.165,0,0,0-1.165,1.165v21.111a3.5,3.5,0,0,1-3.5,3.5H182.412a1.165,1.165,0,0,0,0,2.331h46.217a5.833,5.833,0,0,0,5.827-5.827V373.158a1.165,1.165,0,0,0-1.166-1.169Z" transform="translate(-137.674 -320.537)" fill="#fff"/>
      <path id="Path_7" data-name="Path 7" d="M90.955,7.769H85.9V2.719A2.722,2.722,0,0,0,83.186,0H78.525a2.722,2.722,0,0,0-2.719,2.719v5.05H45.975V2.719A2.722,2.722,0,0,0,43.256,0H38.6a2.722,2.722,0,0,0-2.719,2.719v5.05h-5.05A5.833,5.833,0,0,0,25,13.6V73.729a5.833,5.833,0,0,0,5.827,5.827H46.053a1.165,1.165,0,0,0,0-2.331H30.827a3.5,3.5,0,0,1-3.5-3.5V25.637H71.689a1.165,1.165,0,1,0,0-2.331H27.331V13.6a3.5,3.5,0,0,1,3.5-3.5h5.05v5.05A2.722,2.722,0,0,0,38.6,17.868h4.661a2.722,2.722,0,0,0,2.719-2.719V10.1H75.806v5.05a2.722,2.722,0,0,0,2.719,2.719h4.661A2.722,2.722,0,0,0,85.9,15.15V10.1h5.05a3.5,3.5,0,0,1,3.5,3.5v9.711l-25.608,0a1.165,1.165,0,1,0,0,2.331l25.6.005V54.691a1.165,1.165,0,0,0,2.331,0V13.6a5.833,5.833,0,0,0-5.827-5.831Zm-47.31,7.38a.389.389,0,0,1-.388.388H38.6a.389.389,0,0,1-.388-.388V2.719a.389.389,0,0,1,.388-.388h4.661a.389.389,0,0,1,.388.388Zm39.93,0a.389.389,0,0,1-.388.388H78.525a.389.389,0,0,1-.388-.388V2.719a.389.389,0,0,1,.388-.388h4.661a.389.389,0,0,1,.388.388Z" fill="#fff"/>
      <path id="Path_8" data-name="Path 8" d="M131.64,247.285h10.691a2.356,2.356,0,0,0,2.353-2.353v-33.26a2.356,2.356,0,0,0-2.353-2.353H96.852a2.356,2.356,0,0,0-2.353,2.353v33.26a2.356,2.356,0,0,0,2.353,2.353h34.787ZM96.83,223.529h9.548v9.548H96.83Zm11.879,0h9.718v9.548h-9.718Zm33.645,9.548h-9.548v-9.548h9.548Zm-11.879,0h-9.718v-9.548h9.718Zm-9.718,2.331h9.718v9.548h-9.718Zm21.6,9.526a.023.023,0,0,1-.023.023h-9.526v-9.548h9.548Zm0-33.26V221.2h-9.548v-9.55h9.526a.023.023,0,0,1,.018.022ZM130.474,221.2h-9.718v-9.55h9.718Zm-12.049,0h-9.718v-9.55h9.718Zm-21.6-9.526a.023.023,0,0,1,.023-.023h9.526V221.2H96.83Zm0,33.26v-9.526h9.548v9.548H96.852a.023.023,0,0,1-.022-.024Zm11.879-9.526h9.718v9.548H108.7Z" transform="translate(-58.701 -176.797)" fill="#fff"/>
    </g>
  </g>
</svg>
