<svg xmlns="http://www.w3.org/2000/svg" xmlns:xlink="http://www.w3.org/1999/xlink" width="80" height="80" viewBox="0 0 80 80">
  <defs>
    <linearGradient id="linear-gradient" x1="0.5" x2="0.5" y2="1" gradientUnits="objectBoundingBox">
      <stop offset="0" stop-color="#fff700"/>
      <stop offset="1" stop-color="#ffa200"/>
    </linearGradient>
    <clipPath id="clip-calendar_1">
      <rect width="80" height="80"/>
    </clipPath>
  </defs>
  <g id="calendar_1" data-name="calendar – 1" clip-path="url(#clip-calendar_1)">
    <path id="Union_9" data-name="Union 9" d="M-4661.262-2086.441c-.031,0-.061,0-.091,0h-13.82a5.833,5.833,0,0,1-5.827-5.827V-2152.4a5.833,5.833,0,0,1,5.832-5.83h5.049v-5.05a2.722,2.722,0,0,1,2.72-2.719h4.656a2.72,2.72,0,0,1,2.718,2.719v5.05h29.832v-5.05a2.72,2.72,0,0,1,2.719-2.719h4.662a2.721,2.721,0,0,1,2.718,2.719v5.05h5.05a5.832,5.832,0,0,1,5.827,5.83v60.132a5.833,5.833,0,0,1-5.827,5.827Zm46.212-2.331a3.5,3.5,0,0,0,3.5-3.5v-48.086l-25.6,0h-41.521v48.088a3.5,3.5,0,0,0,3.5,3.5h15.226l.074,0Zm3.5-53.918v-9.711a3.5,3.5,0,0,0-3.5-3.5h-5.05v5.049a2.723,2.723,0,0,1-2.718,2.72h-4.662a2.722,2.722,0,0,1-2.719-2.72v-5.049h-29.826v5.049a2.723,2.723,0,0,1-2.72,2.719h-4.66a2.722,2.722,0,0,1-2.72-2.719v-5.049h-5.049a3.5,3.5,0,0,0-3.5,3.5v9.706h44.391Zm-16.317-20.591v12.43a.389.389,0,0,0,.388.388h4.663a.39.39,0,0,0,.388-.388v-12.43a.389.389,0,0,0-.387-.388h-4.662A.389.389,0,0,0-4627.863-2163.281Zm-39.925,0v12.43a.389.389,0,0,0,.388.388h4.657a.389.389,0,0,0,.388-.388l0-12.43a.388.388,0,0,0-.388-.388h-4.66A.388.388,0,0,0-4667.788-2163.281Zm34.726,67.769h-34.787a2.355,2.355,0,0,1-2.353-2.353v-33.26a2.356,2.356,0,0,1,2.353-2.353h45.479a2.357,2.357,0,0,1,2.353,2.353v33.26a2.356,2.356,0,0,1-2.353,2.353Zm1.168-2.328h9.526a.024.024,0,0,0,.023-.024v-9.525h-9.548Zm-24.1,0h9.718v-9.549H-4656Zm-11.852,0h9.521v-9.549h-9.547v9.526l0,0A.024.024,0,0,0-4667.849-2097.84Zm23.9,0h9.718v-9.549h-9.718Zm12.05-11.879h9.547v-9.547h-9.547Zm-12.05,0h9.718v-9.547h-9.718Zm-12.048,0h9.719v-9.547h-9.719Zm-11.878,0h9.547v-9.547h-9.547Zm35.979-11.877h9.549v-9.526h0a.023.023,0,0,0-.018-.022h-9.526Zm-12.052,0h9.718v-9.55h-9.718Zm-12.05,0h9.719v-9.55h-9.719Zm-11.88-9.525,0,9.525h9.545v-9.549h-9.526A.022.022,0,0,0-4667.875-2131.123Z" transform="translate(4685.398 2166.442)" fill="url(#linear-gradient)"/>
  </g>
</svg>
