<svg xmlns="http://www.w3.org/2000/svg" xmlns:xlink="http://www.w3.org/1999/xlink" width="80" height="80" viewBox="0 0 80 80">
  <defs>
    <linearGradient id="linear-gradient" x1="0.5" x2="0.5" y2="1" gradientUnits="objectBoundingBox">
      <stop offset="0" stop-color="#fff700"/>
      <stop offset="1" stop-color="#ffa200"/>
    </linearGradient>
    <clipPath id="clip-exit_1">
      <rect width="80" height="80"/>
    </clipPath>
  </defs>
  <g id="exit_1" data-name="exit – 1" clip-path="url(#clip-exit_1)">
    <g id="Group_1" data-name="Group 1" transform="translate(7 5)">
      <path id="Path_1" data-name="Path 1" d="M48.6,66.252H30.269a9.036,9.036,0,0,1-9.023-9.023V13.05a9.036,9.036,0,0,1,9.023-9.023H48.9A2.014,2.014,0,0,0,48.9,0H30.269a13.065,13.065,0,0,0-13.05,13.05V57.228a13.065,13.065,0,0,0,13.05,13.05H48.6a2.014,2.014,0,1,0,0-4.027Z" transform="translate(-17.219)" fill="url(#linear-gradient)"/>
      <path id="Path_2" data-name="Path 2" d="M169.663,149.715l-12.8-12.8a2.015,2.015,0,1,0-2.849,2.849l9.37,9.366H122.532a2.014,2.014,0,0,0,0,4.027h40.855l-9.367,9.367a2.021,2.021,0,0,0,1.417,3.445,1.965,1.965,0,0,0,1.417-.6l12.8-12.8a2.012,2.012,0,0,0,.013-2.864Z" transform="translate(-105.112 -115.993)" fill="url(#linear-gradient)"/>
    </g>
  </g>
</svg>
