<svg xmlns="http://www.w3.org/2000/svg" xmlns:xlink="http://www.w3.org/1999/xlink" width="80" height="80" viewBox="0 0 80 80">
  <defs>
    <linearGradient id="linear-gradient" x1="0.5" x2="0.5" y2="1" gradientUnits="objectBoundingBox">
      <stop offset="0" stop-color="#fff700"/>
      <stop offset="1" stop-color="#ffa200"/>
    </linearGradient>
    <clipPath id="clip-file_1">
      <rect width="80" height="80"/>
    </clipPath>
  </defs>
  <g id="file_1" data-name="file – 1" clip-path="url(#clip-file_1)">
    <path id="Union_7" data-name="Union 7" d="M-5105.633-2105.6a7.375,7.375,0,0,1-7.367-7.367v-45.662a7.376,7.376,0,0,1,7.367-7.367h11.681a9.467,9.467,0,0,1,7.251,3.356l4.859,5.14h27.181a7.376,7.376,0,0,1,7.364,7.367v37.167a7.375,7.375,0,0,1-7.364,7.367Zm-5.376-38.162v30.8a5.384,5.384,0,0,0,5.376,5.377h50.972a5.384,5.384,0,0,0,5.377-5.377v-30.8a5.383,5.383,0,0,0-5.377-5.376h-50.972A5.383,5.383,0,0,0-5111.01-2143.767Zm0-14.867v9.839a7.348,7.348,0,0,1,5.378-2.339h50.972a7.349,7.349,0,0,1,5.377,2.338v-1.342a5.383,5.383,0,0,0-5.377-5.376h-27.608a.993.993,0,0,1-.722-.312l-5.164-5.456-.01-.01a7.477,7.477,0,0,0-5.787-2.716h-11.681A5.382,5.382,0,0,0-5111.01-2158.634Zm55.286,21.173h-13.8a.992.992,0,0,1-.887-.489,1,1,0,0,1,0-1.012,1,1,0,0,1,.887-.489h13.8a1,1,0,0,1,.887.489.993.993,0,0,1,0,1.012,1,1,0,0,1-.858.491Zm0-5.311h-13.8a1,1,0,0,1-.967-.995,1,1,0,0,1,.967-1h13.8a1,1,0,0,1,.887.489.993.993,0,0,1,0,1.012.992.992,0,0,1-.855.49Z" transform="translate(5120 2176)" fill="url(#linear-gradient)"/>
  </g>
</svg>
