<svg xmlns="http://www.w3.org/2000/svg" xmlns:xlink="http://www.w3.org/1999/xlink" width="80" height="80" viewBox="0 0 80 80">
  <defs>
    <clipPath id="clip-file">
      <rect width="80" height="80"/>
    </clipPath>
  </defs>
  <g id="file" clip-path="url(#clip-file)">
    <g id="folder_4_" data-name="folder (4)" transform="translate(6.748 -9.716)">
      <path id="Path_22" data-name="Path 22" d="M58.339,28.5H31.158l-4.86-5.14A9.463,9.463,0,0,0,19.048,20H7.367A7.375,7.375,0,0,0,0,27.367V73.029A7.375,7.375,0,0,0,7.367,80.4H58.339A7.375,7.375,0,0,0,65.7,73.029V35.862A7.375,7.375,0,0,0,58.339,28.5Zm5.376,44.534a5.382,5.382,0,0,1-5.376,5.376H7.367a5.382,5.382,0,0,1-5.376-5.376v-30.8a5.382,5.382,0,0,1,5.376-5.376H58.339a5.382,5.382,0,0,1,5.376,5.376ZM58.339,34.867H7.367a7.347,7.347,0,0,0-5.377,2.339V27.367a5.382,5.382,0,0,1,5.376-5.376H19.048a7.48,7.48,0,0,1,5.787,2.717l.01.011,5.163,5.456a1,1,0,0,0,.723.311H58.339a5.382,5.382,0,0,1,5.376,5.376V37.2A7.347,7.347,0,0,0,58.339,34.867Z" transform="translate(0 0)" fill="#fff"/>
      <path id="Path_23" data-name="Path 23" d="M334.805,180H321a1,1,0,0,0,0,1.991h13.8a1,1,0,1,0,0-1.991Z" transform="translate(-277.529 -138.762)" fill="#fff"/>
      <path id="Path_24" data-name="Path 24" d="M334.8,220h-13.8a1,1,0,1,0,0,1.991h13.8a1,1,0,1,0,0-1.991Z" transform="translate(-277.518 -173.452)" fill="#fff"/>
    </g>
  </g>
</svg>
