<svg xmlns="http://www.w3.org/2000/svg" xmlns:xlink="http://www.w3.org/1999/xlink" width="80" height="80" viewBox="0 0 80 80">
  <defs>
    <linearGradient id="linear-gradient" x1="0.5" x2="0.5" y2="1" gradientUnits="objectBoundingBox">
      <stop offset="0" stop-color="#fff700"/>
      <stop offset="1" stop-color="#ffa200"/>
    </linearGradient>
    <clipPath id="clip-group_1">
      <rect width="80" height="80"/>
    </clipPath>
  </defs>
  <g id="group_1" data-name="group – 1" clip-path="url(#clip-group_1)">
    <g id="group" transform="translate(1 -79.66)">
      <path id="Path_10" data-name="Path 10" d="M67.782,116.262a10.337,10.337,0,0,0,3.4-10.988,8.737,8.737,0,0,0-17.067,0,10.337,10.337,0,0,0,3.4,10.988,15.263,15.263,0,0,0-5.288,3.4,19.6,19.6,0,0,0-7.256-4.336,12.989,12.989,0,0,0,5.058-13.976c-1.366-5.375-5.831-9.094-10.92-9.094s-9.554,3.719-10.92,9.094a12.989,12.989,0,0,0,5.058,13.976,19.761,19.761,0,0,0-7.181,4.285,15.373,15.373,0,0,0-5.226-3.333,10.337,10.337,0,0,0,3.4-10.988,9.078,9.078,0,0,0-8.533-6.861,9.078,9.078,0,0,0-8.533,6.861,10.337,10.337,0,0,0,3.4,10.988C4.248,118.679,0,125.212,0,132.553v1.122a.07.07,0,0,0,.062.068H19.027a25.05,25.05,0,0,0-.171,2.871v1.157c0,5,3.693,9.049,8.25,9.047H51.143c4.557,0,8.252-4.049,8.25-9.047v-1.157a25.053,25.053,0,0,0-.171-2.871H78.311a.07.07,0,0,0,.062-.068v-1.122c-.016-7.346-4.263-13.88-10.591-16.291Zm-11.6-8.043c0-3.9,2.87-7.064,6.425-7.089s6.462,3.1,6.508,7-2.787,7.105-6.342,7.18h-.248C59,115.241,56.175,112.085,56.18,108.219Zm-25.958-3.54c0-5.291,3.861-9.608,8.685-9.709s8.833,4.048,9.019,9.334-3.521,9.763-8.337,10.068H38.567c-4.681-.3-8.338-4.551-8.345-9.693ZM9.195,108.217c0-3.9,2.87-7.064,6.425-7.089s6.462,3.1,6.508,7-2.787,7.105-6.342,7.18h-.248c-3.521-.076-6.339-3.227-6.341-7.088ZM19.46,131H2.512c.719-7.332,6.333-12.91,13.057-12.975h.186a12.456,12.456,0,0,1,8.453,3.452,23.04,23.04,0,0,0-4.747,9.526Zm37.419,6.768a6.076,6.076,0,0,1-5.768,6.326H27.076a6.076,6.076,0,0,1-5.768-6.326v-1.157c.009-10.544,7.649-19.177,17.259-19.5.171.017.357.017.524.017s.357,0,.524-.017c9.611.328,17.25,8.961,17.259,19.5ZM58.725,131a22.985,22.985,0,0,0-4.7-9.455,12.524,12.524,0,0,1,8.528-3.52h.186c6.724.065,12.338,5.643,13.057,12.975Z" transform="translate(0 0)" fill="url(#linear-gradient)"/>
    </g>
  </g>
</svg>
