<svg xmlns="http://www.w3.org/2000/svg" xmlns:xlink="http://www.w3.org/1999/xlink" width="80" height="80" viewBox="0 0 80 80">
  <defs>
    <linearGradient id="linear-gradient" x1="0.5" x2="0.5" y2="1" gradientUnits="objectBoundingBox">
      <stop offset="0" stop-color="#fff700"/>
      <stop offset="1" stop-color="#ffa200"/>
    </linearGradient>
    <clipPath id="clip-instagram_1">
      <rect width="80" height="80"/>
    </clipPath>
  </defs>
  <g id="instagram_1" data-name="instagram – 1" clip-path="url(#clip-instagram_1)">
    <path id="Union_6" data-name="Union 6" d="M-5417.187-2092.8A19.835,19.835,0,0,1-5437-2112.617v-33.57A19.835,19.835,0,0,1-5417.187-2166h33.568a19.834,19.834,0,0,1,19.813,19.813v33.57a19.834,19.834,0,0,1-19.812,19.813Zm-15.522-53.382v33.57a15.539,15.539,0,0,0,15.522,15.517h33.568a15.538,15.538,0,0,0,15.519-15.517v-33.57a15.538,15.538,0,0,0-15.519-15.523h-33.568A15.541,15.541,0,0,0-5432.71-2146.187Zm12.293,16.781a20.014,20.014,0,0,1,20.013-20.013,20.036,20.036,0,0,1,20.014,20.013,20.014,20.014,0,0,1-20.014,20.015A20.014,20.014,0,0,1-5420.417-2129.406Zm4.291,0a15.723,15.723,0,0,0,15.722,15.723v0a15.739,15.739,0,0,0,15.723-15.727,15.722,15.722,0,0,0-15.723-15.722A15.722,15.722,0,0,0-5416.126-2129.407Zm30.3-21.206a5.914,5.914,0,0,1,5.919-5.911,5.921,5.921,0,0,1,5.909,5.915,5.916,5.916,0,0,1-5.917,5.914A5.913,5.913,0,0,1-5385.83-2150.613Zm4.3,0a1.624,1.624,0,0,0,1.624,1.624,1.626,1.626,0,0,0,1.623-1.624,1.623,1.623,0,0,0-1.623-1.622A1.624,1.624,0,0,0-5381.534-2150.611Z" transform="translate(5440 2169)" fill="url(#linear-gradient)"/>
  </g>
</svg>
