<svg xmlns="http://www.w3.org/2000/svg" xmlns:xlink="http://www.w3.org/1999/xlink" width="80" height="80" viewBox="0 0 80 80">
  <defs>
    <linearGradient id="linear-gradient" x1="0.5" x2="0.5" y2="1" gradientUnits="objectBoundingBox">
      <stop offset="0" stop-color="#fff700"/>
      <stop offset="1" stop-color="#ffa200"/>
    </linearGradient>
    <clipPath id="clip-medal_1">
      <rect width="80" height="80"/>
    </clipPath>
  </defs>
  <g id="medal_1" data-name="medal – 1" clip-path="url(#clip-medal_1)">
    <path id="Union_8" data-name="Union 8" d="M-5538.828-2112.725a21.355,21.355,0,0,1,4.176-25.864.069.069,0,0,1-.049-.02.072.072,0,0,1-.021-.052L-5544.9-2159.1a.953.953,0,0,1,.139-1.045.863.863,0,0,1,.976-.28l6.834,2.092.21-.209c.069-.07.069-.07.139-.07l2.512-6.766a.969.969,0,0,1,.836-.626h.071a.9.9,0,0,1,.836.558l10.6,21.2a20.068,20.068,0,0,1,3.348,0l10.671-21.135a.908.908,0,0,1,.838-.558h.07a.975.975,0,0,1,.837.629l2.512,6.765c.069.07.069.07.139.07l.21.21,6.834-2.093a.893.893,0,0,1,.975.28.953.953,0,0,1,.139,1.045l-10.253,20.366a.067.067,0,0,0-.05.021.063.063,0,0,0-.02.049,21.594,21.594,0,0,1,6.766,15.625,21.36,21.36,0,0,1-16.073,20.691,21.364,21.364,0,0,1-5.286.666A21.362,21.362,0,0,1-5538.828-2112.725Zm-.706-10.241a19.46,19.46,0,0,0,19.459,19.46,19.461,19.461,0,0,0,19.461-19.46,19.46,19.46,0,0,0-19.461-19.459A19.466,19.466,0,0,0-5539.533-2122.966Zm6.417-16.808a17.708,17.708,0,0,1,3.626-2.3l-7.184-14.158-5.581-1.606Zm29.643-16.46-7.114,14.09a19.829,19.829,0,0,1,3.628,2.3l9.066-18.063Zm-12.9,12.274a23.9,23.9,0,0,1,3.979,1.116l7.322-14.367-2.022-5.372Zm-18.692-13.253,7.323,14.369a18.734,18.734,0,0,1,3.98-1.116l-9.279-18.623Zm24.068,47.647-8.575-3.87-8.788,3.313a.975.975,0,0,1-.891-.161.978.978,0,0,1-.375-.827l1.1-9.328-5.827-7.387a.823.823,0,0,1-.162-.926,1.108,1.108,0,0,1,.721-.587l9.165-1.864,5.208-7.794a.99.99,0,0,1,.845-.4.784.784,0,0,1,.568.177l.046.033a.634.634,0,0,1,.187.237l4.625,8.13,8.954,2.483a1.074,1.074,0,0,1,.629.669.994.994,0,0,1-.187.917l-6.31,6.933.4,9.344a1.058,1.058,0,0,1-.394.843,1.049,1.049,0,0,1-.534.146A1.05,1.05,0,0,1-5511-2109.566Zm-8.1-5.722,7.466,3.364-.308-8.21a1.171,1.171,0,0,1,.264-.679l5.564-6.1-7.927-2.207a.537.537,0,0,1-.317-.16c-.015-.011-.031-.021-.046-.033a.633.633,0,0,1-.185-.237l-4.055-7.158-4.574,6.872a.84.84,0,0,1-.6.42l-8.1,1.641,5.121,6.478a1.089,1.089,0,0,1,.181.674l-.888,8.159,7.7-2.838a.718.718,0,0,1,.335-.083A.728.728,0,0,1-5519.107-2115.288Z" transform="translate(5560 2173)" fill="url(#linear-gradient)"/>
  </g>
</svg>
