<svg xmlns="http://www.w3.org/2000/svg" xmlns:xlink="http://www.w3.org/1999/xlink" width="80" height="80" viewBox="0 0 80 80">
  <defs>
    <clipPath id="clip-medal">
      <rect width="80" height="80"/>
    </clipPath>
  </defs>
  <g id="medal" clip-path="url(#clip-medal)">
    <g id="medal_1_" data-name="medal (1)" transform="translate(106.391 67.063) rotate(180)">
      <g id="Group_43" data-name="Group 43" transform="translate(41.469 -4.329)">
        <g id="Group_42" data-name="Group 42" transform="translate(0 0)">
          <path id="Path_25" data-name="Path 25" d="M91.3,57.469,81.112,37.033a.068.068,0,0,0-.07-.07,21.357,21.357,0,1,0-35.92-15.624,21.588,21.588,0,0,0,6.766,15.625.068.068,0,0,1-.07.07L41.565,57.4a.955.955,0,0,0,.14,1.046.893.893,0,0,0,.974.279l6.835-2.093.21.21c.07,0,.07,0,.14.07l2.512,6.765a.974.974,0,0,0,.837.628h.07a.906.906,0,0,0,.837-.558L64.791,42.613a20.123,20.123,0,0,0,3.348,0l10.6,21.2a.906.906,0,0,0,.837.558h.07a.974.974,0,0,0,.837-.628L83,56.981c.07,0,.07,0,.14-.07l.21-.21,6.835,2.093a.862.862,0,0,0,.974-.279A.955.955,0,0,0,91.3,57.469Zm-41.431-2.86-5.58,1.674L53.35,38.219a19.879,19.879,0,0,0,3.629,2.3Zm3.627,6.347-2.023-5.371,7.322-14.368a23.8,23.8,0,0,0,3.979,1.116ZM66.465,40.8A19.46,19.46,0,1,1,85.925,21.34,19.46,19.46,0,0,1,66.465,40.8ZM79.438,60.956,70.159,42.334a18.611,18.611,0,0,0,3.979-1.116l7.324,14.368Zm3.627-6.347L75.881,40.451a17.755,17.755,0,0,0,3.627-2.3l9.137,18.065Z" transform="translate(-41.469 0.017)" fill="#fff"/>
        </g>
      </g>
      <g id="Group_45" data-name="Group 45" transform="matrix(0.788, 0.616, -0.616, 0.788, 63.397, -5.229)">
        <g id="Group_44" data-name="Group 44" transform="translate(0 0)">
          <path id="Path_26" data-name="Path 26" d="M31.066,11.3a.819.819,0,0,0-.7-.628L21.231,8.443,16.349.421a.974.974,0,0,0-1.6,0L9.862,8.443.725,10.674a1.048,1.048,0,0,0-.7.628,1.056,1.056,0,0,0,.21.907l6.068,7.114-.7,9.345a.994.994,0,0,0,.418.837,1.068,1.068,0,0,0,.907.14l8.582-3.557,8.649,3.554a.629.629,0,0,0,.348.07.792.792,0,0,0,.558-.21.994.994,0,0,0,.418-.837l-.7-9.346,6.072-7.111a1.11,1.11,0,0,0,.206-.907Zm-8.021,7.114a.843.843,0,0,0-.21.7l.628,8.23-7.6-3.142a.629.629,0,0,0-.348-.07.523.523,0,0,0-.348.07l-7.6,3.142.628-8.23a1.178,1.178,0,0,0-.21-.7l-5.3-6.277,7.952-1.949a.724.724,0,0,0,.558-.418l4.321-6.979,4.324,6.975a1.085,1.085,0,0,0,.558.418l8.021,1.949Z" fill="#fff"/>
        </g>
      </g>
    </g>
  </g>
</svg>
