<svg xmlns="http://www.w3.org/2000/svg" xmlns:xlink="http://www.w3.org/1999/xlink" width="80" height="80" viewBox="0 0 80 80">
  <defs>
    <linearGradient id="linear-gradient" x1="0.5" x2="0.5" y2="1" gradientUnits="objectBoundingBox">
      <stop offset="0" stop-color="#fff700"/>
      <stop offset="1" stop-color="#ffa200"/>
    </linearGradient>
    <clipPath id="clip-publish_1">
      <rect width="80" height="80"/>
    </clipPath>
  </defs>
  <g id="publish_1" data-name="publish – 1" clip-path="url(#clip-publish_1)">
    <g id="Group_46" data-name="Group 46" transform="translate(4 10)">
      <path id="Path_27" data-name="Path 27" d="M71.166,43.186a2.377,2.377,0,0,0-2.407-.38L.74,69.4a1.2,1.2,0,0,0,.9,2.227L66.94,46.14,38.122,80.128a1.2,1.2,0,1,0,1.832,1.553l29.254-34.5L65.3,66.8,61.36,93.118a1.2,1.2,0,0,1-.6.873,1.135,1.135,0,0,1-1.012.047L43.373,87.6l-7.857-3.29a1.2,1.2,0,0,0-1.572.643,1.153,1.153,0,0,0-.05.254h-.029l-3.9,15.064-5.6-19.553L53.543,58.982a1.2,1.2,0,1,0-1.433-1.921L22.781,78.9,1.641,70.338a1.2,1.2,0,1,0-.9,2.227l21.25,8.6,5.668,19.785a2.381,2.381,0,0,0,2.3,1.721h.027a2.359,2.359,0,0,0,1.561-.628,1.062,1.062,0,0,0,.12-.084L43.269,90.09l15.559,6.17a3.5,3.5,0,0,0,3.087-.173,3.592,3.592,0,0,0,1.809-2.607l3.933-26.267L71.98,45.527a2.415,2.415,0,0,0-.814-2.34ZM33.328,96.832l2.535-9.771,3.97,1.667,1.023.406Z" transform="translate(0.011 -42.635)" fill="url(#linear-gradient)"/>
    </g>
  </g>
</svg>
