<svg xmlns="http://www.w3.org/2000/svg" xmlns:xlink="http://www.w3.org/1999/xlink" width="164" height="164" viewBox="0 0 164 164">
  <defs>
    <radialGradient id="radial-gradient" cx="0.372" cy="1.001" r="1.247" gradientUnits="objectBoundingBox">
      <stop offset="0" stop-color="#fd5"/>
      <stop offset="0.328" stop-color="#ff543f"/>
      <stop offset="0.348" stop-color="#fc5245"/>
      <stop offset="0.504" stop-color="#e64771"/>
      <stop offset="0.643" stop-color="#d53e91"/>
      <stop offset="0.761" stop-color="#cc39a4"/>
      <stop offset="0.841" stop-color="#c837ab"/>
    </radialGradient>
    <clipPath id="clip-white_logo">
      <rect width="164" height="164"/>
    </clipPath>
  </defs>
  <g id="white_logo" data-name="white logo" clip-path="url(#clip-white_logo)">
    <g id="icons8-instagram_copy" data-name="icons8-instagram copy">
      <path id="Path" d="M127.611,163.913,36.548,164A36.535,36.535,0,0,1,.087,127.611L0,36.548A36.535,36.535,0,0,1,36.389.087L127.452,0a36.535,36.535,0,0,1,36.462,36.389L164,127.452a36.526,36.526,0,0,1-36.389,36.461Z" fill="#fff"/>
    </g>
    <g id="Branding_and_Marketing_icon-01" data-name="Branding and Marketing icon-01" transform="translate(27 21)">
      <path id="Shape" d="M56.258,121.61a30.2,30.2,0,0,1-8.323-4.409c-2.393-1.619-4.74-3.308-7.175-4.865-1.5-.962-3.123-1.732-4.76-2.624l5.579-5.536c.818-.812,1.648-1.616,2.466-2.429a5.494,5.494,0,0,1,5.916-1.418c2.089.679,4.123,1.528,6.189,2.276a21.672,21.672,0,0,0,3.466,1.117,7.289,7.289,0,0,0,2.648-.176c1.558-.31,3.071-.916,4.638-1.068,2.556-.248,4.585,1.053,6.292,2.776a2.865,2.865,0,0,1,.224,3.741,13.758,13.758,0,0,1-1.516,1.988c-2.561,2.816-5.2,5.568-7.715,8.419A6.965,6.965,0,0,1,58.8,122a9.1,9.1,0,0,1-2.542-.39ZM22.6,109.78c-5.528-.95-10.054-3.779-14-7.583A27.754,27.754,0,0,1,.613,89.465,18.186,18.186,0,0,1,0,84.938a8.76,8.76,0,0,1,2.751-6.529c3.516-3.47,7.109-6.882,10.394-10.559A35.443,35.443,0,0,0,22.225,45.1c.086-2.077.106-4.158.16-6.239,0-.242.03-.484.055-.856.759,1.863,1.358,3.644,2.193,5.308,1.206,2.4,2.607,4.707,3.867,7.084a3.011,3.011,0,0,1,.379,1.682,38.536,38.536,0,0,1-5.6,15.813,2.3,2.3,0,0,0-.294,2.023A23.793,23.793,0,0,0,28.8,79.772a26.565,26.565,0,0,0,9.847,6.917,12.8,12.8,0,0,0,2.338.7,2.052,2.052,0,0,0,1.292-.293,42.393,42.393,0,0,1,16.567-5.765,1.556,1.556,0,0,1,.98.154A54.364,54.364,0,0,0,71.87,87.417c.049.016.085.065.128.1v.264c-1.924,0-3.851-.049-5.775.008C56.066,88.082,47.5,92.02,40.28,98.975c-2.7,2.6-5.436,5.175-8.007,7.9A9.516,9.516,0,0,1,25.031,110a14.38,14.38,0,0,1-2.431-.22Zm51.373-26.7a63.549,63.549,0,0,1-15.682-8.968A109.524,109.524,0,0,1,32.916,47.757a45.977,45.977,0,0,1-7.247-15.6c-.323-1.427-.451-2.893-.669-4.341-.024-5.144,2.45-8.858,7.084-10.284a15.269,15.269,0,0,1,7.446-.141,44.906,44.906,0,0,1,16.22,7.041A107.655,107.655,0,0,1,87.306,56.078a42.064,42.064,0,0,1,6.267,14.434,15.874,15.874,0,0,1,.005,7.277c-1.064,4.077-4.358,6.745-8.854,7.142q-.8.071-1.6.07a26.017,26.017,0,0,1-9.155-1.92ZM92.361,52.427a3.005,3.005,0,0,1,1.208-4.057q6.043-3.525,12.136-6.952a2.879,2.879,0,0,1,4.052,1.131c.517.9.907,1.867,1.245,2.569-.159,1.542-.621,2.559-1.834,3.083q-6.421,2.763-12.848,5.512A3.491,3.491,0,0,1,94.957,54a2.9,2.9,0,0,1-2.6-1.573ZM78.323,31.109a2.965,2.965,0,0,1,.524-3.418c1.464-1.668,2.954-3.311,4.434-4.966,1.656-1.85,3.3-3.712,4.975-5.543a3.159,3.159,0,0,1,4.792-.16c2.774,2.43,2.441,4.433-.039,6.5-3.3,2.749-6.431,5.7-9.676,8.507A7.921,7.921,0,0,1,81.6,33a3.255,3.255,0,0,1-3.277-1.891ZM59.068,18.85A3.108,3.108,0,0,1,57,15.733a9.953,9.953,0,0,1,.368-1.218q2.668-6.3,5.372-12.578A3,3,0,0,1,66.983.352c.435.211.861.442,1.28.684A3.056,3.056,0,0,1,69.5,5.487c-1.845,3.279-3.721,6.539-5.593,9.8-.482.841-.941,1.7-1.5,2.489A2.918,2.918,0,0,1,60.012,19a3.037,3.037,0,0,1-.944-.15Z" fill="url(#radial-gradient)"/>
    </g>
  </g>
</svg>
